<svg xmlns="http://www.w3.org/2000/svg" viewBox="0 0 64 64" width="64" height="64">
  <!-- Testimonials Icon - Quote marks with star -->
  <g fill="none" stroke="#3D4F4F" stroke-width="3" stroke-linecap="round" stroke-linejoin="round">
    <path d="M12 20c0-6 4-10 10-10v8c-4 0-6 2-6 6v14h-8V24c0-2 2-4 4-4z" fill="#F18A2B" fill-opacity="0.2"/>
    <path d="M32 20c0-6 4-10 10-10v8c-4 0-6 2-6 6v14h-8V24c0-2 2-4 4-4z" fill="#F18A2B" fill-opacity="0.2"/>
    <polygon points="50,42 52,50 60,50 54,56 56,64 50,60 44,64 46,56 40,50 48,50" fill="#F18A2B" fill-opacity="0.3" stroke="#F18A2B"/>
  </g>
</svg>
